<svg width="28" height="28" viewBox="0 0 28 28" fill="none" xmlns="http://www.w3.org/2000/svg">
<path d="M2.80002 0.5H9.79997C11.0691 0.5 12.1 1.533 12.1 2.80002V9.79997C12.1 11.067 11.0691 12.1 9.80004 12.1H2.80002C1.53209 12.1 0.5 11.0668 0.5 9.80004V2.80002C0.5 1.53316 1.5321 0.5 2.80002 0.5Z" stroke="#00969E"/>
<path d="M18.1999 0.5H25.1999C26.469 0.5 27.4999 1.533 27.4999 2.80002V9.80004C27.4999 11.0671 26.469 12.1001 25.1999 12.1001H18.1999C16.9308 12.1001 15.8999 11.067 15.8999 9.80004V2.80002C15.8999 1.533 16.9307 0.5 18.1999 0.5Z" stroke="#00969E"/>
<path d="M2.80002 15.9H9.79997C11.0691 15.9 12.1 16.933 12.1 18.1999V25.1999C12.1 26.4682 11.0693 27.5 9.80004 27.5H2.80002C1.53194 27.5 0.5 26.468 0.5 25.1999V18.1999C0.5 16.9331 1.53209 15.9 2.80002 15.9Z" stroke="#00969E"/>
<path d="M18.1999 15.9H25.1999C26.4691 15.9 27.4999 16.933 27.4999 18.1999V25.1999C27.4999 26.4682 26.4692 27.5 25.1999 27.5H18.1999C16.9306 27.5 15.8999 26.4682 15.8999 25.1999V18.2C15.8999 16.933 16.9307 15.9 18.1999 15.9Z" stroke="#00969E"/>
</svg>
