<svg width="20" height="20" viewBox="0 0 20 20" fill="none" xmlns="http://www.w3.org/2000/svg">
<path d="M4.5 15.7143V15.2143H4H2C1.20541 15.2143 0.5 14.5098 0.5 13.5714V2.14286C0.5 1.20452 1.20541 0.5 2 0.5H18C18.7946 0.5 19.5 1.20452 19.5 2.14286V13.5714C19.5 14.5098 18.7946 15.2143 18 15.2143H9.90067H9.7157L9.57526 15.3347L4.75793 19.4639L4.75768 19.4642C4.72731 19.4902 4.69538 19.5 4.66667 19.5C4.65 19.5 4.62945 19.4962 4.60589 19.4846C4.55241 19.4559 4.5 19.3847 4.5 19.2857V15.7143ZM4.66667 10.5H10C10.6771 10.5 11.1667 9.92276 11.1667 9.28571C11.1667 8.64867 10.6771 8.07143 10 8.07143H4.66667C3.98961 8.07143 3.5 8.64867 3.5 9.28571C3.5 9.92276 3.98961 10.5 4.66667 10.5ZM4.66667 7.64286H15.3333C16.0104 7.64286 16.5 7.06561 16.5 6.42857C16.5 5.79153 16.0104 5.21429 15.3333 5.21429H4.66667C3.98961 5.21429 3.5 5.79153 3.5 6.42857C3.5 7.06561 3.98961 7.64286 4.66667 7.64286Z" stroke="#00969E"/>
</svg>
