<svg width="25" height="25" viewBox="0 0 25 25" fill="none" xmlns="http://www.w3.org/2000/svg">
<path d="M0.765625 22.0153V8.48227C0.766201 8.25539 0.825198 8.03248 0.936934 7.83502C1.04864 7.6376 1.2093 7.47228 1.40342 7.35496C1.40361 7.35484 1.4038 7.35473 1.40399 7.35462L11.8247 1.10218L11.8248 1.10214C12.0288 0.979688 12.2623 0.915001 12.5002 0.915001C12.7382 0.915001 12.9716 0.979688 13.1757 1.10214L13.1757 1.10218L23.5963 7.35454C23.5966 7.35467 23.5968 7.35481 23.597 7.35494C23.791 7.4723 23.9516 7.63762 24.0632 7.835C24.1748 8.03237 24.2338 8.25514 24.2344 8.48187C24.2344 8.48215 24.2344 8.48242 24.2344 8.48269L24.2344 22.0151C24.2338 22.6035 23.9998 23.1677 23.5837 23.5837C23.1677 23.9998 22.6035 24.2338 22.0151 24.2344H17.4844C17.1363 24.2344 16.8024 24.0961 16.5563 23.8499C16.3102 23.6038 16.1719 23.27 16.1719 22.9219V17.9375C16.1719 17.5645 16.0237 17.2069 15.76 16.9431C15.4963 16.6794 15.1386 16.5312 14.7656 16.5312H10.2344C9.86141 16.5312 9.50373 16.6794 9.24001 16.9431C8.97628 17.2068 8.82812 17.5645 8.82812 17.9375V22.9219C8.82812 23.27 8.68984 23.6038 8.4437 23.8499C8.19756 24.0961 7.86372 24.2344 7.51562 24.2344H2.98487C2.39647 24.2338 1.83234 23.9998 1.41628 23.5837C1.00027 23.1677 0.766272 22.6037 0.765625 22.0153Z" stroke="black"/>
</svg>
