<?xml version="1.0"?>
<svg xmlns="http://www.w3.org/2000/svg" xmlns:xlink="http://www.w3.org/1999/xlink" xmlns:svgjs="http://svgjs.com/svgjs" version="1.1" width="512" height="512" x="0" y="0" viewBox="0 0 90 90" style="enable-background:new 0 0 512 512" xml:space="preserve" class=""><g><path xmlns="http://www.w3.org/2000/svg" d="m62.668 14.203-6.204 6.216c-3.687-.647-7.49-.986-11.345-.986-14.328-.015-27.957 4.452-37.468 12.967-6.781 5.825 2.208 15.896 8.749 9.802 6.287-5.637 16.71-9.447 27.902-9.614l-6.438 6.443c-5.766.971-11.355 3.134-16.074 6.261-4.718 3.124-3.921 8.202-1.014 10.851l-2.912 2.909c-1.469 1.475-1.776 3.545-.683 4.641l2.511 2.512c1.093 1.096 3.162.793 4.636-.682l44.801-44.851c1.475-1.475 1.776-3.545.682-4.64l-2.505-2.513c-1.357-1.354-3.435-.52-4.638.684z" fill="#ffffff" data-original="#000000" style="" class=""/><path xmlns="http://www.w3.org/2000/svg" d="m55.204 68.172c0 2.529-.995 4.953-2.765 6.742-1.771 1.788-4.178 2.794-6.683 2.794s-4.907-1.006-6.677-2.794c-1.776-1.789-2.771-4.213-2.771-6.742 0-5.266 4.229-9.537 9.448-9.537s9.448 4.271 9.448 9.537z" fill="#ffffff" data-original="#000000" style="" class=""/><path xmlns="http://www.w3.org/2000/svg" d="m71.308 25.058-10.115 10.131c4.995 1.695 9.355 4.13 12.598 7.048 6.511 5.856 15.287-3.919 8.776-9.775-3.301-2.967-7.109-5.432-11.259-7.404z" fill="#ffffff" data-original="#000000" style="" class=""/><path xmlns="http://www.w3.org/2000/svg" d="m56.318 40.063-11.693 11.706c5.756-.084 11.532 1.475 16.287 4.708 7.245 4.922 14.62-5.949 7.379-10.875-3.712-2.524-7.764-4.366-11.973-5.539z" fill="#ffffff" data-original="#000000" style="" class=""/></g></svg>
