<svg width="29" height="29" viewBox="0 0 29 29" fill="none" xmlns="http://www.w3.org/2000/svg">
<g clip-path="url(#clip0_245_101)">
<rect width="29" height="29" fill="white"/>
<path d="M25.205 18.2728L25.205 18.2729L25.212 18.2717C26.4882 18.053 27.7405 18.7839 28.1807 20.0044C28.2226 20.1314 28.2532 20.2701 28.2814 20.4213C28.5004 21.8328 27.533 23.158 26.1201 23.3808L14.4545 25.2193L14.1108 25.2735L14.0422 25.6146C13.8355 26.6429 13.1887 27.5246 12.2737 28.041C10.5377 29.012 8.35068 28.3912 7.37875 26.6598L7.2084 26.3563L6.86467 26.4107L3.69453 26.9119C3.69378 26.912 3.69303 26.9121 3.69228 26.9122C3.55289 26.9328 3.42084 26.9428 3.284 26.9428H3.28397H3.28393H3.2839H3.28386H3.28383H3.28379H3.28375H3.28372H3.28368H3.28364H3.28361H3.28357H3.28353H3.28349H3.28346H3.28342H3.28338H3.28334H3.28331H3.28327H3.28323H3.28319H3.28315H3.28311H3.28308H3.28304H3.283H3.28296H3.28292H3.28288H3.28284H3.2828H3.28276H3.28272H3.28268H3.28264H3.2826H3.28256H3.28252H3.28248H3.28244H3.2824H3.28236H3.28231H3.28227H3.28223H3.28219H3.28215H3.28211H3.28206H3.28202H3.28198H3.28194H3.2819H3.28185H3.28181H3.28177H3.28172H3.28168H3.28164H3.2816H3.28155H3.28151H3.28146H3.28142H3.28138H3.28133H3.28129H3.28124H3.2812H3.28116H3.28111H3.28107H3.28102H3.28098H3.28093H3.28089H3.28084H3.28079H3.28075H3.2807H3.28066H3.28061H3.28057H3.28052H3.28047H3.28043H3.28038H3.28033H3.28029H3.28024H3.28019H3.28015H3.2801H3.28005H3.28H3.27996H3.27991H3.27986H3.27981H3.27977H3.27972H3.27967H3.27962H3.27957H3.27952H3.27948H3.27943H3.27938H3.27933H3.27928H3.27923H3.27918H3.27913H3.27908H3.27903H3.27898H3.27893H3.27888H3.27883H3.27878H3.27873H3.27868H3.27863H3.27858H3.27853H3.27848H3.27843H3.27838H3.27833H3.27828H3.27822H3.27817H3.27812H3.27807H3.27802H3.27797H3.27791H3.27786H3.27781H3.27776H3.27771H3.27765H3.2776H3.27755H3.2775H3.27744H3.27739H3.27734H3.27728H3.27723H3.27718H3.27712H3.27707H3.27702H3.27696H3.27691H3.27686H3.2768H3.27675H3.27669H3.27664H3.27658H3.27653H3.27648H3.27642H3.27637H3.27631H3.27626H3.2762H3.27615H3.27609H3.27604H3.27598H3.27592H3.27587H3.27581H3.27576H3.2757H3.27565H3.27559H3.27553H3.27548H3.27542H3.27537H3.27531H3.27525H3.2752H3.27514H3.27508H3.27503H3.27497H3.27491H3.27485H3.2748H3.27474H3.27468H3.27462H3.27457H3.27451H3.27445H3.27439H3.27434H3.27428H3.27422H3.27416H3.2741H3.27404H3.27399H3.27393H3.27387H3.27381H3.27375H3.27369H3.27363H3.27358H3.27352H3.27346H3.2734H3.27334H3.27328H3.27322H3.27316H3.2731H3.27304H3.27298H3.27292H3.27286H3.2728H3.27274H3.27268H3.27262H3.27256H3.2725H3.27244H3.27238H3.27232H3.27226H3.2722H3.27214H3.27208H3.27201H3.27195H3.27189H3.27183H3.27177H3.27171H3.27165H3.27159H3.27152H3.27146H3.2714H3.27134H3.27128H3.27121H3.27115H3.27109H3.27103H3.27097H3.2709H3.27084H3.27078H3.27072H3.27065H3.27059H3.27053H3.27047H3.2704H3.27034H3.27028H3.27022H3.27015H3.27009H3.27003H3.26996H3.2699H3.26984H3.26977H3.26971H3.26965H3.26958H3.26952H3.26945H3.26939H3.26933H3.26926H3.2692H3.26913H3.26907H3.26901H3.26894H3.26888H3.26881H3.26875H3.26868H3.26862H3.26856H3.26849H3.26843H3.26836H3.2683H3.26823H3.26817H3.2681H3.26804H3.26797H3.26791H3.26784H3.26778H3.26771H3.26765H3.26758H3.26751H3.26745H3.26738H3.26732H3.26725H3.26719H3.26712H3.26705H3.26699H3.26692H3.26686H3.26679H3.26672H3.26666H3.26659H3.26653H3.26646H3.26639H3.26633H3.26626H3.26619H3.26613H3.26606H3.26599H3.26593H3.26586H3.26579H3.26573H3.26566H3.26559H3.26553H3.26546H3.26539H3.26532H3.26526H3.26519H3.26512H3.26506H3.26499H3.26492H3.26485H3.26479H3.26472H3.26465H3.26458H3.26452H3.26445H3.26438H3.26431H3.26424H3.26418H3.26411H3.26404H3.26397H3.26391H3.26384H3.26377H3.2637H3.26363H3.26356H3.2635H3.26343H3.26336H3.26329H3.26322H3.26315H3.26309H3.26302H3.26295H3.26288H3.26281H3.26274H3.26267H3.26261H3.26254H3.26247H3.2624H3.26233H3.26226H3.26219H3.26212H3.26205H3.26199H3.26192H3.26185H3.26178H3.26171H3.26164H3.26157H3.2615H3.26143H3.26136H3.26129H3.26122H3.26116H3.26109H3.26102H3.26095H3.26088H3.26081H3.26074H3.26067H3.2606H3.26053H3.26046H3.26039H3.26032H3.26025H3.26018H3.26011H3.26004H3.25997H3.2599H3.25983H3.25976H3.25969H3.25962H3.25955H3.25948H3.25941H3.25934H3.25927H3.2592H3.25913H3.25906H3.25899H3.25892H3.25885H3.25878H3.25871H3.25864H3.25857H3.2585H3.25843H3.25836H3.25829H3.25822H3.25815H3.25808H3.25801H3.25794H3.25787H3.2578H3.25773H3.25766H3.25759H3.25752H3.25745H3.25737H3.2573H3.25723H3.25716H3.25709H3.25702H3.25695H3.25688H3.25681H3.25674H3.25667H3.25665C1.82343 26.9263 0.675749 25.7583 0.687591 24.3277C0.736358 23.0293 1.70463 21.9523 2.98582 21.7693L2.98582 21.7693L2.99248 21.7683C3.77219 21.6462 4.28869 20.9162 4.17799 20.1505L4.17804 20.1505L4.17702 20.144L3.35456 14.9371L3.35446 14.9365C2.73886 11.0703 4.48779 7.21539 7.79056 5.12671L8.06451 4.95347L8.01818 4.63266C7.73669 2.68348 9.06975 0.866216 11.0144 0.547098C12.9858 0.228532 14.8397 1.56199 15.1638 3.53341L15.2154 3.84712L15.5214 3.93349C19.3599 5.01703 22.2138 8.25078 22.8191 12.2002L22.8193 12.2015L23.5813 17.0879L23.5814 17.0882C23.7026 17.8623 24.4296 18.3943 25.205 18.2728ZM9.21168 26.0477L8.03285 26.2327L8.9914 26.9433C9.42985 27.2684 9.96402 27.4408 10.5047 27.4408C11.3281 27.4408 12.1032 27.0512 12.5858 26.38L13.2843 25.4087L12.1024 25.5942L9.21168 26.0477ZM13.271 3.60734L13.2788 3.60758H13.2866H13.335H14.2611L13.753 2.83325C13.2785 2.11029 12.4747 1.68377 11.6219 1.67628V1.67627H11.6175C11.4917 1.67627 11.3551 1.68313 11.2124 1.70665C10.2199 1.85847 9.41014 2.58042 9.1402 3.5477L8.8683 4.52201L9.78946 4.15355L9.79189 4.15304L9.80247 4.15098L9.81661 4.1482L9.84997 4.14153L9.88211 4.1304C10.1735 4.02954 10.4689 3.94956 10.7854 3.87326C10.8337 3.86275 10.8806 3.85104 10.9192 3.84139L10.9223 3.8406C10.9659 3.82972 10.9998 3.82128 11.0323 3.8143C11.4164 3.73285 11.7941 3.67018 12.1733 3.63608C12.5441 3.6072 12.9057 3.59593 13.271 3.60734Z" stroke="black"/>
</g>
<defs>
<clipPath id="clip0_245_101">
<rect width="29" height="29" fill="white"/>
</clipPath>
</defs>
</svg>
