<svg width="59" height="72" viewBox="0 0 59 72" fill="none" xmlns="http://www.w3.org/2000/svg">
<path d="M53.3981 34.0349L57.0211 54.582L43.8879 65.606L11.1135 71.385L9.17974 60.4182L44.3492 54.2169L41.6153 38.7121L21.0682 42.3351L4.95661 36.4677L1.48921 16.803L14.6224 5.779L46.1363 0.222261L48.07 11.1891L14.1611 17.1681L16.7394 31.7906L37.2865 28.1676L53.3981 34.0349Z" fill="#6A0DAD"/>
<path d="M53.3981 34.0349L57.0211 54.582L43.8879 65.606L11.1135 71.385L9.17974 60.4182L44.3492 54.2169L41.6153 38.7121L21.0682 42.3351L4.95661 36.4677L1.48921 16.803L14.6224 5.779L46.1363 0.222261L48.07 11.1891L14.1611 17.1681L16.7394 31.7906L37.2865 28.1676L53.3981 34.0349Z" fill="#6A0DAD"/>
<rect x="17.0295" y="18.5551" width="18" height="11" transform="rotate(-10 17.0295 18.5551)" fill="#6A0DAD"/>
<rect x="21.5444" y="44.1601" width="18" height="12" transform="rotate(-10 21.5444 44.1601)" fill="#6A0DAD"/>
</svg>
