<svg width="122" height="122" viewBox="0 0 122 122" fill="none" xmlns="http://www.w3.org/2000/svg">
<rect y="1.78802" width="120" height="120" rx="30" transform="rotate(-0.853752 0 1.78802)" fill="#6A0DAD"/>
<g clip-path="url(#clip0_209_6)">
<path d="M86.4439 59.8849L90.0669 80.4319L76.9337 91.456L44.1593 97.235L42.2256 86.2682L77.395 80.0668L74.6611 64.562L54.1141 68.185L38.0024 62.3176L34.535 42.653L47.6682 31.6289L79.1821 26.0722L81.1158 37.039L47.2069 43.0181L49.7853 57.6405L70.3323 54.0175L86.4439 59.8849Z" fill="white"/>
<rect x="50.0754" y="44.4051" width="18" height="11" transform="rotate(-10 50.0754 44.4051)" fill="white"/>
<rect x="54.5902" y="70.0101" width="18" height="12" transform="rotate(-10 54.5902 70.0101)" fill="white"/>
</g>
<defs>
<clipPath id="clip0_209_6">
<rect width="49" height="64" fill="white" transform="translate(31.8874 33.3961) rotate(-10)"/>
</clipPath>
</defs>
</svg>
